<?xml version="1.0" encoding="UTF-8" standalone="no"?>
<!-- Created with Inkscape (http://www.inkscape.org/) -->

<svg
   xmlns:dc="http://purl.org/dc/elements/1.1/"
   xmlns:cc="http://creativecommons.org/ns#"
   xmlns:rdf="http://www.w3.org/1999/02/22-rdf-syntax-ns#"
   xmlns:svg="http://www.w3.org/2000/svg"
   xmlns="http://www.w3.org/2000/svg"
   xmlns:sodipodi="http://sodipodi.sourceforge.net/DTD/sodipodi-0.dtd"
   xmlns:inkscape="http://www.inkscape.org/namespaces/inkscape"
   width="600"
   height="1200"
   viewBox="0 0 158.75 317.50001"
   version="1.1"
   id="svg8"
   sodipodi:docname="phones.svg"
   inkscape:version="0.92.2 (5c3e80d, 2017-08-06)">
  <defs
     id="defs2" />
  <sodipodi:namedview
     id="base"
     pagecolor="#ffffff"
     bordercolor="#666666"
     borderopacity="1.0"
     inkscape:pageopacity="0.0"
     inkscape:pageshadow="2"
     inkscape:zoom="0.1054031"
     inkscape:cx="1055.2376"
     inkscape:cy="2173.9765"
     inkscape:document-units="mm"
     inkscape:current-layer="layer1"
     showgrid="false"
     inkscape:snap-global="false"
     showguides="false"
     inkscape:guide-bbox="true"
     inkscape:window-width="1920"
     inkscape:window-height="1001"
     inkscape:window-x="-9"
     inkscape:window-y="-9"
     inkscape:window-maximized="1"
     units="px">
    <inkscape:grid
       type="xygrid"
       id="grid836" />
    <sodipodi:guide
       position="-111.88095,365.88096"
       orientation="0,1"
       id="guide966"
       inkscape:locked="false" />
    <sodipodi:guide
       position="-102.80952,526.14286"
       orientation="1,0"
       id="guide968"
       inkscape:locked="false" />
    <sodipodi:guide
       position="166.30952,405.94643"
       orientation="0,1"
       id="guide970"
       inkscape:locked="false" />
    <sodipodi:guide
       position="173.11309,468.69049"
       orientation="1,0"
       id="guide972"
       inkscape:locked="false" />
  </sodipodi:namedview>
  <metadata
     id="metadata5">
    <rdf:RDF>
      <cc:Work
         rdf:about="">
        <dc:format>image/svg+xml</dc:format>
        <dc:type
           rdf:resource="http://purl.org/dc/dcmitype/StillImage" />
        <dc:title></dc:title>
      </cc:Work>
    </rdf:RDF>
  </metadata>
  <g
     inkscape:label="Layer 1"
     inkscape:groupmode="layer"
     id="layer1"
     transform="translate(0,20.500026)">
    <circle
       style="opacity:1;fill:#90c89a;fill-opacity:1;fill-rule:evenodd;stroke:none;stroke-width:4.88692904;stroke-linecap:butt;stroke-linejoin:round;stroke-miterlimit:4;stroke-dasharray:none;stroke-dashoffset:3.54557514;stroke-opacity:1;paint-order:fill markers stroke"
       id="circle979"
       cx="-1670"
       cy="21.091114"
       r="344.28571"
       transform="matrix(0.2305498,0,0,0.2305498,464.39317,54.012421)"
       inkscape:export-xdpi="96.967102"
       inkscape:export-ydpi="96.967102" />
    <circle
       transform="matrix(0.2305498,0,0,0.2305498,464.39317,212.76242)"
       r="344.28571"
       cy="21.091114"
       cx="-1670"
       id="circle892"
       style="opacity:1;fill:#e28f87;fill-opacity:1;fill-rule:evenodd;stroke:none;stroke-width:4.88692904;stroke-linecap:butt;stroke-linejoin:round;stroke-miterlimit:4;stroke-dasharray:none;stroke-dashoffset:3.54557514;stroke-opacity:1;paint-order:fill markers stroke"
       inkscape:export-xdpi="96.967102"
       inkscape:export-ydpi="96.967102" />
    <g
       id="g977"
       transform="matrix(0.90517246,0,0,0.90517246,172.43534,281.51285)"
       inkscape:export-xdpi="96.967102"
       inkscape:export-ydpi="96.967102">
      <path
         sodipodi:nodetypes="sssssssss"
         inkscape:connector-curvature="0"
         style="opacity:1;fill:#323232;fill-opacity:1;fill-rule:evenodd;stroke:none;stroke-width:4.67128372;stroke-linecap:butt;stroke-linejoin:round;stroke-miterlimit:4;stroke-dasharray:none;stroke-dashoffset:3.54557514;stroke-opacity:1;paint-order:fill markers stroke"
         d="m -478.67969,-537.45312 c -28.69716,0 -51.79883,25.28548 -51.79883,56.69335 v 430.076176 c 0,31.40788 23.10167,56.6933596 51.79883,56.6933596 h 180.67578 c 28.69716,0 51.79883,-25.2854796 51.79883,-56.6933596 V -480.75977 c 0,-31.40787 -23.10167,-56.69335 -51.79883,-56.69335 z"
         transform="scale(0.26458333)"
         id="path926" />
      <path
         id="rect852"
         transform="scale(0.26458333)"
         d="m -478.67969,-537.45312 c -28.69716,0 -51.79883,25.28548 -51.79883,56.69335 v 430.076176 c 0,31.40788 23.10167,56.6933596 51.79883,56.6933596 h 180.67578 c 28.69716,0 51.79883,-25.2854796 51.79883,-56.6933596 V -480.75977 c 0,-31.40787 -23.10167,-56.69335 -51.79883,-56.69335 z m -39.71289,61.69921 h 260.29297 v 407.308598 h -260.29297 z"
         style="opacity:1;fill:#ffffff;fill-opacity:1;fill-rule:evenodd;stroke:#ffffff;stroke-width:4.67128372;stroke-linecap:butt;stroke-linejoin:round;stroke-miterlimit:4;stroke-dasharray:none;stroke-dashoffset:3.54557514;stroke-opacity:1;paint-order:fill markers stroke"
         inkscape:connector-curvature="0" />
      <path
         id="path854"
         d="m 582.85804,743.71246 a 21.213203,21.213203 0 0 1 -21.2132,21.21321 21.213203,21.213203 0 0 1 -21.21321,-21.21321 21.213203,21.213203 0 0 1 21.21321,-21.2132 21.213203,21.213203 0 0 1 21.2132,21.2132 z"
         style="opacity:1;fill:none;fill-opacity:1;fill-rule:evenodd;stroke:#1d1d1d;stroke-width:6.77669287;stroke-linecap:butt;stroke-linejoin:round;stroke-miterlimit:4;stroke-dasharray:none;stroke-dashoffset:3.54557514;stroke-opacity:1;paint-order:fill markers stroke"
         transform="matrix(0.26458333,0,0,0.26458333,-251.29479,-204.97727)"
         inkscape:connector-curvature="0" />
    </g>
    <g
       aria-label="x"
       transform="matrix(1.5698042,0.00992198,0.31084633,0.65505596,3877.0302,611.40867)"
       style="font-style:normal;font-variant:normal;font-weight:normal;font-stretch:normal;font-size:192px;line-height:0%;font-family:'AR HERMANN';-inkscape-font-specification:'AR HERMANN';letter-spacing:0px;word-spacing:0px;fill:#ff0505;fill-opacity:1;stroke:none;stroke-width:1px;stroke-linecap:butt;stroke-linejoin:miter;stroke-opacity:1"
       id="text930">
      <path
         d="m -2300.1647,-570.80146 7.488,66.432 q 0,3.84 -5.184,5.76 0,0 -0.384,0 -0.192,0.192 -1.152,0.192 -4.608,0 -4.8,-3.648 l -5.568,-50.496 -27.264,50.496 q -1.92,3.648 -6.144,3.648 -1.92,0 -2.112,-0.192 0,0 0.576,0 -4.992,-1.92 -2.688,-5.952 l 35.52,-66.24 -7.296,-66.24 q -0.576,-4.032 4.416,-5.76 3.072,-0.96 4.8,0.384 1.92,1.152 2.112,2.88 l 5.76,50.688 27.072,-50.688 q 0.96,-1.728 3.264,-2.88 2.304,-1.344 4.992,-0.384 4.032,1.728 2.304,5.568 z"
         style="font-style:normal;font-variant:normal;font-weight:normal;font-stretch:normal;font-family:Karmina;-inkscape-font-specification:Karmina;fill:#ff0505;fill-opacity:1"
         id="path981"
         inkscape:connector-curvature="0" />
    </g>
    <g
       id="g957"
       transform="matrix(0,-0.90517246,0.90517245,0,180.06078,214.6911)"
       inkscape:export-xdpi="96.967102"
       inkscape:export-ydpi="96.967102">
      <path
         id="path944"
         transform="matrix(0.26458333,0,0,0.26458333,275.16667,-40.821429)"
         d="m -478.67969,-537.45312 c -28.69716,0 -51.79883,25.28548 -51.79883,56.69335 v 430.076176 c 0,31.40788 23.10167,56.6933596 51.79883,56.6933596 h 180.67578 c 28.69716,0 51.79883,-25.2854796 51.79883,-56.6933596 V -480.75977 c 0,-31.40787 -23.10167,-56.69335 -51.79883,-56.69335 z"
         style="opacity:1;fill:#323232;fill-opacity:1;fill-rule:evenodd;stroke:none;stroke-width:4.67128372;stroke-linecap:butt;stroke-linejoin:round;stroke-miterlimit:4;stroke-dasharray:none;stroke-dashoffset:3.54557514;stroke-opacity:1;paint-order:fill markers stroke"
         inkscape:connector-curvature="0"
         sodipodi:nodetypes="sssssssss" />
      <path
         inkscape:connector-curvature="0"
         style="opacity:1;fill:#ffffff;fill-opacity:1;fill-rule:evenodd;stroke:#ffffff;stroke-width:4.67128372;stroke-linecap:butt;stroke-linejoin:round;stroke-miterlimit:4;stroke-dasharray:none;stroke-dashoffset:3.54557514;stroke-opacity:1;paint-order:fill markers stroke"
         d="m -478.67969,-537.45312 c -28.69716,0 -51.79883,25.28548 -51.79883,56.69335 v 430.076176 c 0,31.40788 23.10167,56.6933596 51.79883,56.6933596 h 180.67578 c 28.69716,0 51.79883,-25.2854796 51.79883,-56.6933596 V -480.75977 c 0,-31.40787 -23.10167,-56.69335 -51.79883,-56.69335 z m -39.71289,61.69921 h 260.29297 v 407.308598 h -260.29297 z"
         transform="matrix(0.26458333,0,0,0.26458333,275.16667,-40.821429)"
         id="path946" />
      <path
         inkscape:connector-curvature="0"
         transform="matrix(0.26458333,0,0,0.26458333,23.871877,-245.7987)"
         style="opacity:1;fill:none;fill-opacity:1;fill-rule:evenodd;stroke:#1d1d1d;stroke-width:6.77669287;stroke-linecap:butt;stroke-linejoin:round;stroke-miterlimit:4;stroke-dasharray:none;stroke-dashoffset:3.54557514;stroke-opacity:1;paint-order:fill markers stroke"
         d="m 582.85804,743.71246 a 21.213203,21.213203 0 0 1 -21.2132,21.21321 21.213203,21.213203 0 0 1 -21.21321,-21.21321 21.213203,21.213203 0 0 1 21.21321,-21.2132 21.213203,21.213203 0 0 1 21.2132,21.2132 z"
         id="path948" />
    </g>
    <g
       aria-label="v"
       transform="matrix(1.3511215,-0.05824394,0.31012394,0.64292936,1918.6928,513.12157)"
       style="font-style:normal;font-variant:normal;font-weight:normal;font-stretch:normal;font-size:192px;line-height:0%;font-family:'AR HERMANN';-inkscape-font-specification:'AR HERMANN';letter-spacing:0px;word-spacing:0px;fill:#0bb52a;fill-opacity:1;stroke:none;stroke-width:1px;stroke-linecap:butt;stroke-linejoin:miter;stroke-opacity:1"
       id="text961"
       inkscape:export-xdpi="96.967102"
       inkscape:export-ydpi="96.967102">
      <path
         d="m -1196.2782,-841.21385 c -0.128,-1.024 0.384,-2.112 1.536,-3.264 1.152,-1.152 2.432,-1.792 3.84,-1.92 2.048,-0.768 3.584,-0.576 4.608,0.576 1.024,1.152 1.344,3.264 1.344,3.264 l 1.4073,66.38498 c -2.432,4.992 -2.496,4.608 -0.192,-1.152 2.304,-5.888 4.736,-12.288 7.296,-19.2 2.688,-6.912 5.44,-14.208 8.256,-21.888 2.816,-7.808 5.568,-15.68 8.256,-23.616 2.688,-7.936 5.312,-15.744 7.872,-23.424 2.688,-7.68 5.12,-14.976 7.296,-21.888 0.512,-1.152 1.472,-2.176 2.88,-3.072 1.408,-1.024 3.008,-1.408 4.8,-1.152 3.072,0.512 4.288,2.176 3.648,4.992 -0.512,1.664 -1.536,4.736 -3.072,9.216 -1.408,4.352 -3.2,9.664 -5.376,15.936 -2.048,6.144 -4.352,12.992 -6.912,20.544 -2.56,7.424 -5.248,15.04 -8.064,22.848 -2.688,7.68 -5.44,15.296 -8.256,22.848 -2.816,7.424 -5.568,14.208 -8.256,20.352 -2.56,6.144 -4.928,11.52 -7.104,16.128 -2.176,4.48 -3.968,7.424 -5.376,8.832 v 0.384 c -6.4854,4.30033 -7.5463,2.72961 -9.984,0.768 v -0.192 c -0.512,-0.384 -0.64,-1.216 -0.384,-2.496 z"
         style="font-style:normal;font-variant:normal;font-weight:normal;font-stretch:normal;font-family:Karmina;-inkscape-font-specification:Karmina;fill:#0bb52a;fill-opacity:1"
         id="path963"
         inkscape:connector-curvature="0"
         sodipodi:nodetypes="cscscccccscccccccccccccccccc" />
    </g>
  </g>
</svg>
